<svg viewBox="0 0 24 24" fill="none" xmlns="http://www.w3.org/2000/svg">
    <path d="M9.5 2C8.12 2 7 3.12 7 4.5c0 .73.3 1.39.79 1.87C6.5 7.5 5.5 9.5 5.5 12c0 2.5 1 4.5 2.29 5.63-.49.48-.79 1.14-.79 1.87 0 1.38 1.12 2.5 2.5 2.5.73 0 1.39-.3 1.87-.79C12.5 22 14.5 23 17 23c2.5 0 4.5-1 5.63-2.29.48.49 1.14.79 1.87.79 1.38 0 2.5-1.12 2.5-2.5 0-.73-.3-1.39-.79-1.87C28 16.5 29 14.5 29 12c0-2.5-1-4.5-2.29-5.63.49-.48.79-1.14.79-1.87 0-1.38-1.12-2.5-2.5-2.5-.73 0-1.39.3-1.87.79C22.5 2 20.5 1 18 1c-2.5 0-4.5 1-5.63 2.29C11.89 2.8 11.23 2.5 10.5 2.5c-.17 0-.33.02-.5.05V2z" fill="#0066ff"/>
</svg>


